<svg id="图层_1" data-name="图层 1" xmlns="http://www.w3.org/2000/svg" viewBox="0 0 640 750"><defs><style>.cls-1{fill:#fff;}</style></defs><path class="cls-1" d="M300,150V250H700V150Zm153,79.5-26-45h52Zm67-14,26-45,26,45Z" transform="translate(-180 -150)"/><path class="cls-1" d="M420.77,792.91A175,175,0,0,1,387.6,796a177.27,177.27,0,0,1-79.31-18.44,208.63,208.63,0,0,1-53.24-37.8c-6.38-6.19-12.84-12.29-19.29-18.41a1.61,1.61,0,0,1-.56-1.88c2.89-9.93,5.46-20,8.67-29.79a153.39,153.39,0,0,1,35.6-59.49,259.35,259.35,0,0,1,25.27-22.86c.84-.66,1.78-1.21,2.56-1.92,2-1.86,4.08-1.86,6.3-.33,5,3.42,10.07,6.62,14.9,10.19,18.11,13.39,38.32,20.4,60.88,20,21.05-.39,39.93-7.32,56.86-19.78,4.72-3.48,9.71-6.61,14.49-10,2.77-2,5.13-1.78,7.66.44,3.83,3.36,7.73,6.63,11.61,9.94V300H180V900H480V770.58A183.53,183.53,0,0,1,420.77,792.91ZM297.7,520.2a76.32,76.32,0,0,1,12.18-38.43c11-17.07,25.39-30.42,44.14-38.5,24.14-10.4,48.19-9.63,71.63,2.22a96.56,96.56,0,0,1,43.46,43.85,80.58,80.58,0,0,1,8,48.25c-2.73,19.71-11.75,36.32-25.35,50.58-12.09,12.69-26.37,21.8-43.57,25.94a90.6,90.6,0,0,1-21,2.31c-11.85-.23-26.07-2.29-39.24-8.89-11.22-5.63-20.52-13.79-28.68-23.25C312,575.85,306,566.68,302.64,556A103.45,103.45,0,0,1,297.7,520.2Z" transform="translate(-180 -150)"/><path class="cls-1" d="M520,300V663.76a181.27,181.27,0,0,1,15,38.41c1.56,5.72,3.13,11.43,4.77,17.12a1.82,1.82,0,0,1-.6,2.14c-6.43,6-12.73,12.21-19.16,18.24V900H820V300ZM757,621.69H667.54v90.8H629v-90.8H539.51V585.8H629V495h38.57v90.8H757Z" transform="translate(-180 -150)"/></svg>