<svg id="图层_1" data-name="图层 1" xmlns="http://www.w3.org/2000/svg" viewBox="0 0 881.15 723.26"><defs><style>.cls-1{fill:#fff;}</style></defs><polygon class="cls-1" points="721.86 656.25 622.15 614.3 622.15 188.63 721.86 163.46 721.86 656.25"/><polygon class="cls-1" points="881.15 723.26 737.59 662.86 737.59 159.5 881.15 123.26 881.15 723.26"/><path class="cls-1" d="M713.44,223.19v75l159-49.05V156.3Zm53,42.07-9.59-32.78,19.44-7.42Zm26-20.35L803,203l10.88,34.5Z" transform="translate(-54.85 -156.3)"/><path class="cls-1" d="M271.21,560c-36.24-26.57-48.71-58.29-37.37-93.41a78.67,78.67,0,0,1,73.27-54.24c33.81-.56,64.56,20.63,75.6,52.09,12.51,35.64,1,66-36.68,95.67,17.88,5.43,34.18,13.23,48.1,25.38,27.6,24.08,42.48,54.28,43.08,91.08.33,19.93.06,39.87.06,60.44H179.76c0-18.37-.6-36.52.2-54.61.56-12.61,1.42-25.62,4.95-37.62,11.94-40.58,38.76-67.68,78.49-82C265.71,561.92,268,561.12,271.21,560Z" transform="translate(-54.85 -156.3)"/><path class="cls-1" d="M448,687.3c-7-72.24-18.77-91.17-81.12-130.28,15.18-12,22.45-28.86,29.15-46,1-2.57.21-5.81.49-8.72,3.1-32.16-7.23-58.91-32.41-79.43-3.81-3.11-4.29-5.6-2.56-10.05,12-30.8,43.48-51.63,76.26-50.09,35.16,1.66,64.12,25,73.27,59.21,8.48,31.63-5.34,66.47-33.55,84.6-1.65,1.07-3.25,2.21-5.33,3.61,7,2.73,13.67,4.78,19.84,7.83,44.83,22.13,69.15,58.16,71.51,108.2.94,20.12.15,40.31.15,61.12Z" transform="translate(-54.85 -156.3)"/><path class="cls-1" d="M146.86,510.17C132,501.58,121,490.64,113.64,476.23c-20.23-39.61-3.06-88.11,37.77-106.51s89.36,1.34,105.44,42.73c1.74,4.5,1.66,7.2-2.5,10.64-25.18,20.83-36.07,47.66-32,80.2,2.36,18.82,10.67,34.89,23.73,48.55,1.55,1.63,3.12,3.23,4.65,4.86.13.14.05.48.07.73-62,39.5-72.84,57-80.26,129.87H55c0-5.52-.08-10.92,0-16.33.35-19.69-1.3-39.69,1.56-59,7.51-50.61,37.3-83.45,85.5-99.89C143.24,511.67,144.36,511.16,146.86,510.17Z" transform="translate(-54.85 -156.3)"/><path class="cls-1" d="M489.84,319.59H668.5v29.48H489.84ZM595,245V423.66H563.33V245Z" transform="translate(-54.85 -156.3)"/></svg>