<svg id="图层_1" data-name="图层 1" xmlns="http://www.w3.org/2000/svg" viewBox="0 0 721.91 748"><defs><style>.cls-1{fill:#fff;}</style></defs><path class="cls-1" d="M509.49,346.68a175.9,175.9,0,0,0-19.86-31.05c-1.7.82-3.43,1.62-5.2,2.33C444.3,334,400.82,335.27,354.74,335.78c-1.41-.26-26.56-2.21-37.57-3.63-21.95-2.83-43.29-7.46-63-15.82-1.49-.64-3-1.28-4.42-1.95a202.11,202.11,0,0,0-14.08,19.29,131.25,131.25,0,0,0-20.95,66.09c-1,21,2.29,41.48,8.5,61.48,5.73,18.43,16.13,34.21,28.61,48.69,14,16.28,30,30.3,49.31,40,22.64,11.36,47.1,14.89,67.46,15.29,15.33-.21,25.85-1.47,36.19-4,29.58-7.12,54.12-22.79,74.92-44.61,23.38-24.53,38.89-53.09,43.58-87A138.56,138.56,0,0,0,509.49,346.68ZM473.22,461.13c-2,2.64-3.91,5.29-6.06,7.78a76,76,0,0,1-23.5,18.72,58.87,58.87,0,0,1-21.85,6.15A63.6,63.6,0,0,1,398,491a98.1,98.1,0,0,1-27.3-13.69,1.7,1.7,0,0,0-2.33,0,100.69,100.69,0,0,1-24.62,12.82A66.09,66.09,0,0,1,322.06,494a58.92,58.92,0,0,1-30.17-8.19c-10.53-6.11-18.94-14.5-26-24.36a3.49,3.49,0,0,1-.21-4.16,2.89,2.89,0,0,1,3.08-1.35,3.07,3.07,0,0,1,1.29.49c8.14,5.75,16.82,6.06,25.87,2.59a59.66,59.66,0,0,0,18.16-11.62c5.84-5.2,11.78-10.25,18.59-14.17a43.7,43.7,0,0,1,16.15-6c7.92-1,14.82.94,20.34,6.93a2.62,2.62,0,0,0,.34.28,21.17,21.17,0,0,1,12.21-7.06,27.9,27.9,0,0,1,13.27.89,53.84,53.84,0,0,1,17.79,9.24c5,3.8,9.62,8,14.47,11.92,5.46,4.45,11.32,8.27,18.13,10.38,8.32,2.59,16.17,1.76,23.4-3.36a3.16,3.16,0,0,1,4.07.32A3.36,3.36,0,0,1,473.22,461.13Z" transform="translate(-107.09 -126)"/><path class="cls-1" d="M277.25,276.08a5.11,5.11,0,0,1-.65-3.26c.49-7.14.14-14.32.14-21.35q15.27,4.11,30.61,6.87c.87-.39,1.73-.81,2.61-1.19,40.32-17.35,80.48-16.61,119.7,2.06q17.86-3,35.71-7.74c0,7.14-.19,14.31.09,21.46a7,7,0,0,1-.22,2.18,3.91,3.91,0,0,1-.92,1.62A7.5,7.5,0,0,1,461,278.5a161.86,161.86,0,0,1,27.18,26.81A175.93,175.93,0,0,0,509,292.84c3.07-2,4.53-5.57,6.51-8.62l.71-6c-5.53-16.79-28.58-20.72-45.92-27.48-1.59-.6-3.71-2.26-3.64-3.36,2-32.33,3.69-64.9,14.93-96.33,2.2-5.77,0-9.52-7.15-11.36-27.78-7.15-56.09-12.15-85.47-12.88-3-.07-5.91-.54-8.87-.82H361c-32.06,1.6-63.9,5.34-94.22,13.87-6.07,1.65-8.61,5.62-6.71,10.55,12,31.75,12.83,65.43,15.67,98-11,3.91-21.32,7.23-31.22,11.18-9.5,3.78-17,9.35-20.69,17.49l-.07,6c4.17,10,13.57,16,24.29,20.94A170.79,170.79,0,0,1,277.25,276.08Z" transform="translate(-107.09 -126)"/><path class="cls-1" d="M429.45,259.21c-39.18-18.67-79.3-19.41-119.58-2.06-.88.38-1.74.8-2.61,1.19A355.09,355.09,0,0,0,429.45,259.21Z" transform="translate(-107.09 -126)"/><path class="cls-1" d="M315.45,321.83c11,1.42,36.16,3.37,37.57,3.64,46.08-.52,89.56-1.76,129.69-17.83,1.77-.71,3.5-1.5,5.2-2.33a162,162,0,0,0-27.14-26.81c-.32.09-.64.19-1,.28a363.83,363.83,0,0,1-76.94,10.67c-3.91.12-7.83.19-11.74.19h-.16a363.32,363.32,0,0,1-88.53-10.81,13.41,13.41,0,0,1-3.71-1.35,4.37,4.37,0,0,1-1.49-1.4,171.35,171.35,0,0,0-29.14,28q2.19,1,4.42,1.95C272.16,314.37,293.5,319,315.45,321.83Z" transform="translate(-107.09 -126)"/><path class="cls-1" d="M655.25,522A173.75,173.75,0,1,0,829,695.75,173.12,173.12,0,0,0,655.25,522Zm-.47,307.8A134.52,134.52,0,1,1,789.3,695.28,133.92,133.92,0,0,1,654.78,829.8Z" transform="translate(-107.09 -126)"/><path class="cls-1" d="M683,686.58c-6.65-2.88-16.55-1.63-19.51-8.52-2.75-6.4-.7-15-.71-22.6,0-18.63.12-18.72,17.17-11.33,15.27,6.62,15.1,6.49,24.41-7.19,2.88-4.24,2.9-6.26-1.75-8.94-10.25-5.92-20.87-10.48-32.57-12.1-4.46-.62-8.24-1.39-7.36-7.63.76-5.34-3.34-4.71-6.45-4.43-2.79.25-7.88-1.71-7.15,3.63,1.07,7.84-4.08,7.39-8.59,8.41-17.94,4-31.53,13.84-37.81,32-7.1,20.53,4.5,39.87,29.53,50.6,16.63,7.12,16.63,7.12,16.64,27.35-.92,5.88,3.29,16.72-1.7,19.23-6.74,3.38-14.92-3.66-22.1-7.37-5-2.59-9.07-10.09-14.2-8.26-4.74,1.7-7.52,8.7-11.58,13-3.39,3.55-2.74,5.6.9,8.44,11.23,8.75,23.44,15.69,37.3,18.14,8.21,1.45,13.31,3.3,11.46,13.19-1.08,5.75,3.25,5.19,6.85,5.19s7.92.69,6.9-5.13c-1.65-9.34,3-11.23,11-12.49,21.84-3.5,36.06-19,38.27-40.06C713.9,710.26,703.83,695.63,683,686.58ZM648.82,677c-4.69-2.33-8-3.62-10.93-5.5-6-3.83-11.17-8.76-9.94-16.73,1.3-8.47,7.6-12.53,15.08-15.1,3.91-1.35,6-1.18,5.86,4C648.65,654.17,648.82,664.76,648.82,677Zm30.42,63.91c-4.29,3.67-9.89,7.42-14.73,5.61-4.3-1.61-1.5-8.28-1.71-12.66-.39-8.22-.11-16.48-.11-25.65,7.65,1.67,13.23,4.77,17.8,9.5C687.68,725.14,687.13,734.13,679.24,740.88Z" transform="translate(-107.09 -126)"/><path class="cls-1" d="M461.5,694.5a185.48,185.48,0,0,1,59.56-136.4c-4.29-3.65-8.58-7.29-12.81-11s-8.41-4.16-13.17-.76c-8.22,5.88-16.79,11.25-24.92,17.24-29.11,21.43-61.57,33.34-97.77,34-38.79.72-73.54-11.32-104.67-34.35-8.32-6.15-17.11-11.65-25.63-17.53-3.82-2.63-7.33-2.62-10.83.56-1.35,1.23-3,2.18-4.4,3.32a443.3,443.3,0,0,0-43.46,39.3,263.66,263.66,0,0,0-61.22,102.3c-5.51,16.9-9.93,34.15-14.91,51.22a2.78,2.78,0,0,0,1,3.24c11.09,10.51,22.2,21,33.16,31.65a358.4,358.4,0,0,0,91.56,65A304.62,304.62,0,0,0,369.33,874a299.91,299.91,0,0,0,57-5.31,315.69,315.69,0,0,0,97.07-35.62A185.52,185.52,0,0,1,461.5,694.5Z" transform="translate(-107.09 -126)"/></svg>